<svg width="15" height="14" fill="none" xmlns="http://www.w3.org/2000/svg"><path d="M7.981 11.004l3.048 1.917c.39.245.874-.12.758-.57l-.88-3.44a.521.521 0 01.171-.533l2.733-2.258c.36-.297.174-.889-.287-.919l-3.57-.23a.511.511 0 01-.438-.32l-1.331-3.33A.5.5 0 007.715 1a.505.505 0 00-.47.322L5.913 4.65a.505.505 0 01-.438.321l-3.57.23c-.46.03-.646.622-.287.919l2.733 2.258a.525.525 0 01.172.533l-.817 3.19c-.138.541.442.979.91.685l2.832-1.782a.499.499 0 01.533 0v0z" stroke="#30BDEF" stroke-linecap="round" stroke-linejoin="round"/></svg>