<svg width="100" height="100" fill="none" xmlns="http://www.w3.org/2000/svg"><rect x="74.191" y="54.759" width="51.206" height="37.768" rx="5" transform="rotate(135.39 74.19 54.759)" fill="#30BDEF"/><circle cx="69" cy="31" r="5" fill="#30BDEF"/><g filter="url(#filter0_bii_1:55)"><path d="M100 19.181c0 15.192-6.628 26.23-6.907 26.69a2.962 2.962 0 01-2.535 1.42 2.968 2.968 0 01-2.54-4.503c.062-.1 6.043-10.148 6.043-23.607 0-7.675-4.994-13.246-11.877-13.246-6.55 0-11.878 5.323-11.878 11.873 0 2.789 1.352 9.877 1.87 12.372a2.97 2.97 0 01-2.303 3.513 2.972 2.972 0 01-3.511-2.298c-.206-.98-2.002-9.68-2.002-13.587C64.36 7.988 72.354 0 82.184 0 92.338 0 100 8.244 100 19.181zm-17.313 4.67c1.18 9.861 2.892 29.077.925 31.035L40.462 98.01a6.8 6.8 0 01-9.617-.004L1.992 69.176a6.791 6.791 0 010-9.61l43.154-43.12c.64-.64 7.194-.709 14.894-.359.902.04 1.482.818 1.482 1.72 0 1.006.104 2.27.266 3.631.367 3.086-.684 6.242-.684 9.35 0 4.502 3.655 8.155 8.161 8.155s8.16-3.653 8.16-8.156a8.17 8.17 0 00-.138-1.502c-.745-3.987-4.15-7.42-4.15-11.477 0-.424.422-.73.843-.685.77.083 1.525.169 2.25.26 5.702.7 5.76.688 6.457 6.468zM57.508 57.385c1.262-.73 1.848-2.276 1.165-3.563-.438-.824-.99-1.7-1.707-2.628-.776-1.006-.769-2.447.13-3.346a2.35 2.35 0 00-.003-3.325l-.16-.16a2.577 2.577 0 00-3.642.002l-.11.11c-.93.931-2.38 1.035-3.564.465-4.086-1.968-8.105-1.379-10.96 1.473-3.607 3.606-2.756 8.182-.108 13.502 1.82 3.683 2.153 5.803.74 7.215-1.452 1.45-3.794.82-5.92-1.3-1.278-1.277-2.277-2.714-3.038-4.142-.947-1.777-3.185-2.674-4.918-1.648-1.21.717-1.793 2.17-1.184 3.438a22.801 22.801 0 002.294 3.756c.83 1.108.819 2.682-.16 3.662a2.57 2.57 0 00.004 3.63 2.584 2.584 0 003.65.007l.26-.26c1.013-1.011 2.594-1.111 3.881-.484 4.329 2.11 8.499 1.357 11.344-1.487 3.388-3.393 3.686-7.184.782-13.207-2.013-4.318-2.497-6.438-1.304-7.626 1.045-1.044 2.903-1.342 5.323 1.076a16.2 16.2 0 012.587 3.342c.948 1.634 2.983 2.444 4.618 1.498z" fill="#30BDEF" fill-opacity=".03"/></g><defs><filter id="filter0_bii_1:55" x="-86" y="-86" width="272" height="272" filterUnits="userSpaceOnUse" color-interpolation-filters="sRGB"><feFlood flood-opacity="0" result="BackgroundImageFix"/><feGaussianBlur in="BackgroundImage" stdDeviation="43"/><feComposite in2="SourceAlpha" operator="in" result="effect1_backgroundBlur_1:55"/><feBlend in="SourceGraphic" in2="effect1_backgroundBlur_1:55" result="shape"/><feColorMatrix in="SourceAlpha" values="0 0 0 0 0 0 0 0 0 0 0 0 0 0 0 0 0 0 127 0" result="hardAlpha"/><feOffset dy="4"/><feGaussianBlur stdDeviation="2"/><feComposite in2="hardAlpha" operator="arithmetic" k2="-1" k3="1"/><feColorMatrix values="0 0 0 0 1 0 0 0 0 1 0 0 0 0 1 0 0 0 0.15 0"/><feBlend in2="shape" result="effect2_innerShadow_1:55"/><feColorMatrix in="SourceAlpha" values="0 0 0 0 0 0 0 0 0 0 0 0 0 0 0 0 0 0 127 0" result="hardAlpha"/><feOffset/><feGaussianBlur stdDeviation="34"/><feComposite in2="hardAlpha" operator="arithmetic" k2="-1" k3="1"/><feColorMatrix values="0 0 0 0 1 0 0 0 0 1 0 0 0 0 1 0 0 0 0.05 0"/><feBlend in2="effect2_innerShadow_1:55" result="effect3_innerShadow_1:55"/></filter></defs></svg>