<svg width="268" height="268" fill="none" xmlns="http://www.w3.org/2000/svg"><g filter="url(#filter0_f_1:32)"><path d="M217.965 53.603c1.57 45.654-49.936 136.434-87.613 164.397 0 0-44.233-28.109-62.185-73.255C50.215 99.598 50 87.253 50 87.253c43.397-31.094 115.769-44.222 167.965-33.65z" fill="#30BDEF" fill-opacity=".2"/></g><rect x="171.775" y="158.125" width="88.775" height="24.125" rx="5" transform="rotate(-180 171.775 158.125)" fill="#30BDEF"/><g filter="url(#filter1_bii_1:32)" fill="#30BDEF" fill-opacity=".03"><path d="M159.875 77.133c-.4-.4-.996-.63-1.512-.608-11.652.218-25.223 6.947-33.96 16.759-.184.206-.444.33-.72.341-9.245.404-16.958 3.238-21.795 8.075a2.081 2.081 0 00.987 3.5l8.793 2.106a.047.047 0 01.024.077 2.082 2.082 0 00.075 2.867l14.987 14.987a2.06 2.06 0 001.475.609c.5 0 .996-.175 1.392-.534a.047.047 0 01.077.023l2.106 8.794a2.082 2.082 0 002.029 1.6c.546 0 1.075-.213 1.475-.608 4.842-4.842 7.671-12.551 8.079-21.801.012-.275.135-.535.341-.719 9.824-8.765 16.541-22.32 16.76-33.96a2.094 2.094 0 00-.613-1.508z"/><path d="M166.11 93.37c.136-.417.522-.704.961-.704h2.637c4 0 7.292 3.292 7.292 7.292v52.084c0 4-3.292 7.291-7.292 7.291h-33.375a1 1 0 00-1 1v6.333a1 1 0 001 1h7.334a4.165 4.165 0 014.166 4.167c0 2.3-1.862 4.167-4.166 4.167h-33.334a4.168 4.168 0 010-8.334h7.334a1 1 0 001-1v-6.333a1 1 0 00-1-1H84.292c-4 0-7.292-3.291-7.292-7.291V99.958c0-4 3.292-7.291 7.292-7.291h12.155c.99 0 1.44 1.371.704 2.032-.397.357-.781.722-1.151 1.093a10.37 10.37 0 00-2.635 4.423c-.133.453-.536.785-1.008.785h-6.024a1 1 0 00-1 1v48a1 1 0 001 1h81.334a1 1 0 001-1v-48a1 1 0 00-1-1h-3.121c-.746 0-1.231-.788-.911-1.463a52.325 52.325 0 002.475-6.167z"/><path d="M98.07 136.342c.688-2.3 4.268-13.913 7.063-16.709 3.371-3.375 8.859-3.379 12.242-.004 3.375 3.379 3.375 8.867 0 12.242-2.8 2.8-14.408 6.375-16.708 7.062a2.085 2.085 0 01-2.075-.521 2.088 2.088 0 01-.521-2.07z"/></g><rect x="149" y="94" width="6" height="6" rx="3" transform="rotate(-180 149 94)" fill="#30BDEF"/><defs><filter id="filter0_f_1:32" x="0" y="0" width="268" height="268" filterUnits="userSpaceOnUse" color-interpolation-filters="sRGB"><feFlood flood-opacity="0" result="BackgroundImageFix"/><feBlend in="SourceGraphic" in2="BackgroundImageFix" result="shape"/><feGaussianBlur stdDeviation="25" result="effect1_foregroundBlur_1:32"/></filter><filter id="filter1_bii_1:32" x="-9" y="-9.477" width="272" height="271.477" filterUnits="userSpaceOnUse" color-interpolation-filters="sRGB"><feFlood flood-opacity="0" result="BackgroundImageFix"/><feGaussianBlur in="BackgroundImage" stdDeviation="43"/><feComposite in2="SourceAlpha" operator="in" result="effect1_backgroundBlur_1:32"/><feBlend in="SourceGraphic" in2="effect1_backgroundBlur_1:32" result="shape"/><feColorMatrix in="SourceAlpha" values="0 0 0 0 0 0 0 0 0 0 0 0 0 0 0 0 0 0 127 0" result="hardAlpha"/><feOffset dy="4"/><feGaussianBlur stdDeviation="2"/><feComposite in2="hardAlpha" operator="arithmetic" k2="-1" k3="1"/><feColorMatrix values="0 0 0 0 1 0 0 0 0 1 0 0 0 0 1 0 0 0 0.15 0"/><feBlend in2="shape" result="effect2_innerShadow_1:32"/><feColorMatrix in="SourceAlpha" values="0 0 0 0 0 0 0 0 0 0 0 0 0 0 0 0 0 0 127 0" result="hardAlpha"/><feOffset/><feGaussianBlur stdDeviation="34"/><feComposite in2="hardAlpha" operator="arithmetic" k2="-1" k3="1"/><feColorMatrix values="0 0 0 0 1 0 0 0 0 1 0 0 0 0 1 0 0 0 0.05 0"/><feBlend in2="effect2_innerShadow_1:32" result="effect3_innerShadow_1:32"/></filter></defs></svg>