<svg width="46" height="46" fill="none" xmlns="http://www.w3.org/2000/svg"><path d="M40.512 23h-5.75a2.875 2.875 0 00-2.875 2.875v7.188a2.875 2.875 0 002.875 2.874h2.875a2.875 2.875 0 002.875-2.874V23zm0 0A17.25 17.25 0 0023.13 5.75 17.25 17.25 0 005.75 23v10.063a2.875 2.875 0 002.875 2.874H11.5a2.875 2.875 0 002.875-2.874v-7.188A2.875 2.875 0 0011.5 23H5.75" stroke="#30BDEF" stroke-linecap="round" stroke-linejoin="round"/><path d="M40.512 33.063v4.312a5.75 5.75 0 01-5.75 5.75H24.437" stroke="#30BDEF" stroke-linecap="round" stroke-linejoin="round"/></svg>