<svg width="25" height="25" fill="none" xmlns="http://www.w3.org/2000/svg"><path fill-rule="evenodd" clip-rule="evenodd" d="M21.975 0a13.67 13.67 0 00-9.666 4.005l-.717.715c-.49.49-.963 1.002-1.413 1.53H5.174a2.734 2.734 0 00-2.328 1.3L.174 11.886a1.172 1.172 0 00.653 1.734l4.846 1.49c.058.08.124.157.194.227l3.795 3.794c.072.072.147.137.227.195l1.49 4.847a1.172 1.172 0 001.735.653l4.334-2.667a2.735 2.735 0 001.301-2.328V14.82a26.15 26.15 0 001.53-1.412l.715-.718A13.672 13.672 0 0025 3.025v-.29A2.734 2.734 0 0022.266 0h-.29zm-5.568 16.601c-.137.094-.277.185-.416.274L12.32 19.25l.856 2.786 3.045-1.875a.39.39 0 00.186-.333V16.6zm-10.659-3.92l2.378-3.672c.091-.14.183-.278.275-.415H5.172a.39.39 0 00-.333.186l-1.875 3.046 2.784.855zm8.218-7.02a11.327 11.327 0 018.008-3.317h.29a.39.39 0 01.39.39v.29a11.329 11.329 0 01-3.316 8.012l-.717.715a23.764 23.764 0 01-3.904 3.157l-3.62 2.343-3.349-3.348 2.344-3.62a23.826 23.826 0 013.156-3.907l.715-.715h.004zm4.784 2.151a1.563 1.563 0 11-3.125 0 1.563 1.563 0 013.125 0zM5.564 22.75a2.343 2.343 0 10-3.312-3.313C1.105 20.577.616 23.081.455 24.13a.36.36 0 00.414.414c1.049-.16 3.551-.65 4.695-1.793z" fill="#30BDEF"/></svg>