<svg width="21" height="15" fill="none" xmlns="http://www.w3.org/2000/svg"><path d="M17.733 6.575A7.299 7.299 0 0010.5.208c-2.87 0-5.364 1.678-6.503 4.323C1.76 5.2.083 7.312.083 9.583a5.214 5.214 0 005.209 5.208H16.75a4.17 4.17 0 004.167-4.166 4.177 4.177 0 00-3.184-4.05zm-.983 6.133H5.292a3.129 3.129 0 01-3.125-3.125c0-1.462 1.249-2.87 2.784-3.14l.605-.107.2-.581C6.49 3.618 8.307 2.29 10.5 2.29a5.214 5.214 0 015.21 5.21v1.04h1.041c1.15 0 2.084.935 2.084 2.084a2.085 2.085 0 01-2.084 2.083z" fill="#30BDEF"/></svg>