<svg width="25" height="19" fill="none" xmlns="http://www.w3.org/2000/svg"><path fill-rule="evenodd" clip-rule="evenodd" d="M23.242 7.697h.195L22.23 1.74C22.034.777 21.089 0 20.117 0H4.883C3.91 0 2.966.78 2.77 1.74L1.563 7.696h.195A1.768 1.768 0 000 9.474v4.342a1.77 1.77 0 001.563 1.766v.01c0 1.744 1.398 3.158 3.125 3.158 1.726 0 3.125-1.414 3.125-3.158h9.375c0 1.744 1.398 3.158 3.125 3.158 1.726 0 3.125-1.414 3.125-3.158v-.01A1.77 1.77 0 0025 13.816V9.474c0-.982-.786-1.777-1.758-1.777zM4.443 1.777H20.46l1.22 5.92H3.32l1.123-5.92zM21.68 13.815h1.562V9.474H1.758v4.342H3.32v1.776c0 .762.613 1.382 1.368 1.382.754 0 1.367-.62 1.367-1.382v-1.776h12.89v1.776c0 .762.613 1.382 1.367 1.382.755 0 1.368-.62 1.368-1.382v-1.776zm-17.871-2.17c0 .49.393.888.878.888a.884.884 0 00.88-.888.884.884 0 00-.88-.889.884.884 0 00-.878.889zm16.503.888a.884.884 0 01-.878-.888c0-.49.393-.889.878-.889.486 0 .88.398.88.889 0 .49-.394.888-.88.888z" fill="#30BDEF"/></svg>