<svg width="110" height="110" fill="none" xmlns="http://www.w3.org/2000/svg"><path fill="#15142A" fill-opacity=".02" d="M0 0h110v110H0z"/><path d="M79.825 48.942h-49.65c-1.371 0-2.483 1.07-2.483 2.39v14.336c0 1.32 1.112 2.39 2.483 2.39h49.65c1.371 0 2.483-1.07 2.483-2.39V51.332c0-1.32-1.112-2.39-2.483-2.39zm0 25.943h-49.65c-1.371 0-2.483 1.07-2.483 2.39V91.61c0 1.32 1.112 2.39 2.483 2.39h49.65c1.371 0 2.483-1.07 2.483-2.39V77.274c0-1.32-1.112-2.39-2.483-2.39zm0-51.885h-49.65c-1.371 0-2.483 1.07-2.483 2.39v14.336c0 1.32 1.112 2.39 2.483 2.39h49.65c1.371 0 2.483-1.07 2.483-2.39V25.389c0-1.32-1.112-2.389-2.483-2.389z" stroke="#fff" stroke-width="5" stroke-linecap="round" stroke-linejoin="round"/><path d="M70.702 36.654a3.414 3.414 0 100-6.827 3.414 3.414 0 000 6.827zm0 25.942a3.414 3.414 0 100-6.827 3.414 3.414 0 000 6.828zm0 25.943a3.413 3.413 0 100-6.827 3.413 3.413 0 000 6.827z" fill="#fff"/></svg>