<svg width="12" height="12" fill="none" xmlns="http://www.w3.org/2000/svg"><path fill-rule="evenodd" clip-rule="evenodd" d="M1.125 10.687c0 .104.084.188.187.188H3v-.938c0-.31.252-.562.562-.562h1.875c.311 0 .563.252.563.562v.938h1.687a.187.187 0 00.188-.188V1.312a.187.187 0 00-.188-.187H1.312a.188.188 0 00-.187.187v9.375zM1.312 12A1.312 1.312 0 010 10.687V1.312C0 .588.588 0 1.312 0h6.375C8.412 0 9 .588 9 1.312v9.375c0 .064-.005.127-.013.188h1.7a.187.187 0 00.188-.188V6.215a.188.188 0 00-.084-.156l-.79-.527a.562.562 0 01.623-.936l.791.527c.366.243.585.653.585 1.092v4.473c0 .725-.588 1.313-1.313 1.313H8.062a.564.564 0 01-.147-.02c-.074.013-.15.02-.228.02h-2.25a.562.562 0 01-.562-.563V10.5h-.75v.937a.563.563 0 01-.563.563h-2.25zm.938-9.188c0-.31.252-.562.562-.562h.375a.562.562 0 110 1.125h-.375a.562.562 0 01-.562-.563zM2.812 4.5a.562.562 0 000 1.125h.375a.563.563 0 000-1.125h-.375zM2.25 7.312c0-.31.252-.562.562-.562h.375a.562.562 0 110 1.125h-.375a.563.563 0 01-.562-.563zm3.562-.562a.562.562 0 000 1.125h.375a.563.563 0 000-1.125h-.375zM5.25 5.062c0-.31.252-.562.562-.562h.375a.563.563 0 010 1.125h-.375a.563.563 0 01-.562-.563zm.562-2.812a.562.562 0 000 1.125h.375a.563.563 0 000-1.125h-.375z" fill="#fff"/></svg>