<svg width="14" height="14" fill="none" xmlns="http://www.w3.org/2000/svg"><path d="M7.505 11.004l3.026 1.917c.387.245.867-.12.752-.57l-.874-3.44a.525.525 0 01.17-.533l2.714-2.258c.356-.297.172-.889-.286-.919l-3.544-.23a.505.505 0 01-.435-.32l-1.321-3.33a.5.5 0 00-.934 0L5.452 4.65a.505.505 0 01-.435.321l-3.544.23c-.458.03-.642.622-.286.919l2.714 2.258a.525.525 0 01.17.533l-.81 3.19c-.138.541.438.979.902.685l2.812-1.782a.492.492 0 01.53 0v0z" stroke="#fff" stroke-linecap="round" stroke-linejoin="round"/></svg>