<svg width="15" height="13" fill="none" xmlns="http://www.w3.org/2000/svg"><path d="M3.524 3.32a.5.5 0 100 1h7.148a.5.5 0 000-1H3.524zm-.5 2.699a.5.5 0 01.5-.5h7.148a.5.5 0 010 1H3.524a.5.5 0 01-.5-.5zm.5 1.699a.5.5 0 100 1h7.148a.5.5 0 000-1H3.524z" fill="#fff"/><path fill-rule="evenodd" clip-rule="evenodd" d="M1.05.02C.47.02 0 .49 0 1.07v9.897c0 .58.47 1.05 1.05 1.05h12.096c.58 0 1.05-.47 1.05-1.05V1.07c0-.58-.47-1.05-1.05-1.05H1.05zM1 1.07a.05.05 0 01.05-.05h12.096a.05.05 0 01.05.05v9.897a.05.05 0 01-.05.05H1.05a.05.05 0 01-.05-.05V1.07z" fill="#fff"/></svg>