<svg width="94" height="94" fill="none" xmlns="http://www.w3.org/2000/svg"><path d="M60.366.298c-.317.057-.65.13-.993.21l-1.24.29.322-.544-2.828.809c-.242.07-.577.248-.853.396l-.173.092c-.247.128-.505.265-.768.407-.262.141-.515.274-.771.411l-.638.345c-.527.289-1.055.574-1.562.83-.206.101-.48.247-.752.392-.23.122-.458.244-.763.396-.76.384-1.488.783-2.215 1.18a71.55 71.55 0 01-2.322 1.233c-.23.117-.48.255-.726.391-.247.137-.496.275-.772.413a60.331 60.331 0 00-3.06 1.638 49.213 49.213 0 00-2.944 1.82c-.428.289-.85.576-1.25.856-.401.28-.818.578-1.237.89l-.886.662.019-1.001-3.419 3.29-.013.012c-.366.379-.744.742-1.122 1.103-.184.178-.369.353-.54.52l-.199.195c-.544.528-1.142 1.108-1.578 1.668l-1.159 1.538-.01.014-.012.018-.117.162-.158.057a94.518 94.518 0 00-6.817 2.808 80.203 80.203 0 00-6.197 3.165c-.292.168-.534.31-.777.452-.296.174-.592.347-.935.54-.681.385-1.398.852-2.091 1.303l-.388.254c-.257.166-.529.344-.843.551-.261.175-.534.357-.827.56l-.102.071c-.488.337-1.001.693-1.13 1.211l-.033.134v.149c.006.463.05.925.129 1.38.079.49.183.978.28 1.42a96.11 96.11 0 00.854 3.498c.305 1.16.635 2.312.99 3.457.23.746.464 1.485.7 2.216.245.757.49 1.493.736 2.201l.692 2.003C6.506 48.808 0 49.68 0 49.68l4.335 4.185-2.091 15.048 6.628-2.443-.504 1.185 7.915-2.47.369 1.177c.122.245.206.42.288.596a41.045 41.045 0 004.327 7.067l.021.026 2.148 2.512.085.106c.065.08.125.156.193.225.442.441.93.929 1.4 1.365.46.433.947.835 1.46 1.203.71.498 1.222 1.061 1.75 1.64.233.258.47.518.709.756.14.14.255.265.37.392l.011.013a31.146 31.146 0 001.595 1.595c.337.32.674.642 1.01.978l.031.032 3.641 3.266.012.01a78.59 78.59 0 006.375 4.947l1.312.91h.9l4.488-3.827.007-.004c.088-.074.179-.168.274-.263l.109-.111 1.799-1.793.014-.014c.13-.137.279-.293.426-.45.237-.25.474-.5.732-.766l.02-.02.557-.615.01-.013c.475-.494.934-1.03 1.388-1.564.23-.27.459-.538.576-.673l.019-.02 2.907-3.564.14-.05.13-.052c.061-.025.107-.043.12-.05.325-.14.162-.071.227-.099.196-.083.39-.167.63-.28.589-.27 1.16-.572 1.715-.906a9.957 9.957 0 001.522-1.12c.296-.273.56-.578.787-.91.21-.305.38-.635.505-.983.114-.319.186-.651.213-.989.02-.3-.006-.6-.08-.892l-.057-.242.213-.294c.12-.168.239-.337.36-.51.442-.63.944-1.347 1.43-1.83.953-.941 2.149-1.4 3.391-1.486 1.363-.093 2.784.27 3.983.937.366.204.75.49 1.091.745.036.027.07.05.2.147l.525.39c.19.141.38.284.635.468.086.064.189.143.292.224.279.217.572.443.856.549l1.43.529.145-1.515c.023-.248.057-.496.096-.746s.083-.492.126-.725a26.69 26.69 0 00.271-1.718c.069-.568.1-1.14.094-1.712-.01-.754-.134-1.607-.34-2.447a12.024 12.024 0 00-1.346-3.34 11.824 11.824 0 00-.576-.9c-.14-.203-.297-.397-.453-.593-.017-.02-.034-.045-.173-.22-.05-.067-.12-.14-.192-.213l-.12-.128-.02-.023a7.694 7.694 0 00-.517-.569l-.774-.774s-.34-.446-.994-.884l15.446-2.268s1.262-.178 2.295-2.295 2.571-12.527 2.571-12.527-1.336-.983-2.622-1.135c-1.286-.151-10.662 1.336-10.662 1.336l.414-.605c.445-1.228.904-2.456 1.335-3.687 1.002-2.965 1.956-6.218 2.634-9.511.677-3.282 1.082-6.604.995-9.72-.012-.41-.12-.715-.311-.925-.192-.21-.505-.357-.912-.427a253.184 253.184 0 00-3.045-.52 93.101 93.101 0 00-3.047-.446 84.08 84.08 0 00-5.307-.497 86.532 86.532 0 00-5.376-.172h-.122c-1.829 0-3.654 0-5.494.096a13.983 13.983 0 01-1.038.018l-1.18-.036.792-.873c.19-.208.412-.458.64-.719l.033-.036.602-.728c.856-1.04 1.714-2.406 2.402-3.84.636-1.324 1.125-2.705 1.332-3.93L66.087 0h-2.268l-.045.02-.102.006c-.268.016-.577.024-.885.033-.5.013-1 .028-1.458.085-.303.038-.627.092-.963.154z" fill="#30BDEF"/><path d="M84.317 16.544c.726 21.183-23.09 63.305-40.51 76.279 0 0-20.452-13.042-28.753-33.99-8.3-20.948-8.4-26.676-8.4-26.676C26.72 17.73 60.183 11.64 84.317 16.544z" fill="#0A0A57"/><path d="M49.338 22.104c-13.198 2.069-26.222 6.435-36.26 12.784.194.803.408 1.603.627 2.392a130.23 130.23 0 001.662 5.465c.743-.286 1.573-.563 2.347-.736 2.143-.479 3.079-1.05 3.079-1.05L46.25 24.657l3.088-2.555zM34.261 77.151a84.969 84.969 0 009.279 8.277c3.322-3.05 6.407-6.715 9.03-10.105.426-.554.85-1.112 1.272-1.674-6.818.907-16.605 2.336-17.422 3.151-.19.19-.973.3-2.159.351z" fill="#414196"/><path d="M5.429 58.715l-.975 5.118 2.443-.34.976-5.118-2.444.34zm4.767-.661l-.977 5.118 2.447-.339.975-5.12-2.445.34zm4.753-.662l-.977 5.122 2.446-.339.977-5.121-2.446.338zm4.284-.596l8.152-1.133-.983 5.124-2.443.34.825-4.323-3.258.452-.825 4.324-2.448.339.98-5.123zm9.988-1.388l2.448-.34-.713 3.752 1.157-.16 1.462-3.856 2.378-.33-1.609 4.244a3.959 3.959 0 01-.267.497 1.325 1.325 0 01-.546.502 2.275 2.275 0 01-.4.137l-4.886.676.976-5.122zm9.237-1.282l7.708-1.073-.162.845-5.265.732-.549 2.902 5.335-.74-.267 1.381-7.35 1.018c-.084.008-.17.004-.224-.067-.111-.153-.096-.426-.072-.602l.846-4.396zm9.486-1.32l6.654-.924.066.467.388-.016a1.562 1.562 0 01.437.047c.08.024.157.056.23.096.042.024.08.056.11.094.02.036.035.075.043.116v.009a.407.407 0 01-.007.157v.005l-.749 3.948-2.447.34.322-1.69.506-2.633-3.269.453-.059.327h-.003l-.754 3.994-2.447.34.978-5.13zm9.984-1.39l2.447-.339-.98 5.132-2.443.34.976-5.133zm4.225-.587l2.447-.34-.72 3.756 5.304-.734-.266 1.38-7.21.999-.013.003c-.063.013-.176.029-.238.004a.17.17 0 01-.088-.078.63.63 0 01-.065-.265c-.005-.16.01-.32.045-.475v-.004l.804-4.246zm9.562-1.33l2.448-.34-.98 5.138-2.448.339.98-5.137zm3.526-.489l2.331-.324 1.432 4.802-2.432.338-1.398-4.69.067-.126zm5.964-.83l8.128-1.13a4.65 4.65 0 01-.026.264l-.79 4.157a2.154 2.154 0 01-.102.372.79.79 0 01-.13.225.483.483 0 01-.164.129l-.008.004a.697.697 0 01-.263.062h-.016l-7.605 1.055.32-1.683.172-.89 2.448-.34-.23 1.194 3.259-.452.55-2.93-5.702.801.16-.838z" fill="#C1C1E8"/><path d="M41.756 66.508c1.077-.323 1.993-.895 2.718-1.728 1.17-1.346 2.264-2.749 3.467-4.072 1.708-1.875 3.52-3.351 5.744-4.75 1.96-1.235 4.212-2.152 6.599-2.435 2.879-.34 5.719.707 8.474 1.385l-.71 1.077c1.053.393 2.073.87 3.051 1.425 2.995 1.696 5.056 4.155 5.91 7.201.347 1.24.547 2.878.339 4.17l-.512 3.188-2.77-2.052c-.549-.407-1.453-.814-2.115-1.042-1.575-.54-3.234-.653-4.867-.128-1.295.414-2.133 1.097-2.931 2.062-.74.895-1.34 1.85-2.052 2.761.63.954.263 2.144-.505 2.996-1.43 1.583-4.607 2.775-6.68 3.48a35.432 35.432 0 01-7.272 1.634l-1.688 1.058c-1.19.746-3.073 1.051-4.477 1.084-3.968.086-8.004-1.538-11.244-3.339a22.748 22.748 0 01-3.34-2.28c-3.412-2.788-6.059-6.45-8.051-10.136a43.376 43.376 0 01-1.767-3.637l5.249-.875c1.703 1.407 3.772 2.404 6.156 2.622a21.95 21.95 0 007.364-.602c.94-.24 2.12-.599 2.985-1.021l.997-.494.976.49c.766.388 1.09 1.12.967 1.878l-.015.08z" fill="#0A0A57"/><path d="M19.963 63.947c1.634 1.603 4.405 3.609 8.266 3.961 6.602.602 11.55-1.844 11.55-1.844s.158.08-.326.978a7.407 7.407 0 01-1.007 1.455s4.645.717 7.602-2.681c2.957-3.398 4.27-5.617 8.777-8.451 4.506-2.835 8.008-2.093 8.008-2.093s-1.703.35-2.806 1.026l-1.218.748s4.816-1.77 11.181 1.836c6.366 3.606 5.386 9.696 5.386 9.696s-4.08-3.024-8.94-1.465c-7.182 2.303-2.667 8.436-14.038 7.563 0 0 .476-.328 1.102-1.35.626-1.024.407-1.966 1.414-3.87 1.007-1.903.956-3.065.956-3.065s-1.89 1.182-4.905 1.5c-3.016.32-3.755-.661-3.755-.661s1.241 1.385 3.904 1.302c2.662-.084 3.61-.758 3.61-.758s-.887 1.117-1.786 4.3c-.9 3.184-2.819 3.182-2.819 3.182s2.224.833 5.572.579c0 0 .932.042 2.636-.44 1.392-.394 1.856-.782 1.982-.914l.04-.043c.05.07 1.028 1.558-6.116 3.983C46.913 80.904 40.997 80 40.997 80s1.295.79 2.325 1.028c1.03.238 1.5.301 1.5.301s-4.379 2.743-13.489-2.323c-6.68-3.716-10.613-11.188-12.238-14.912l.868-.146z" fill="#414196"/><path d="M19.97 63.953c1.632 1.602 4.4 3.603 8.26 3.955 6.601.602 11.55-1.844 11.55-1.844s.157.08-.327.978l-.033.062c-1.592.634-4.792 1.638-9.224 1.708-6.502.1-10.495-4.821-10.495-4.821l.268-.038zm18.476 4.544s4.645.717 7.602-2.681c2.957-3.398 4.27-5.617 8.776-8.451 4.507-2.835 8.008-2.093 8.008-2.093-8.302.69-9.93 5.026-15.521 10.366-5.646 5.391-8.865 2.86-8.865 2.86zm20.363-11.454s4.816-1.77 11.181 1.836c2.398 1.356 3.754 3.067 4.511 4.672-.782-1.072-2.1-2.444-4.303-3.89-4.915-3.225-11.389-2.618-11.389-2.618z" fill="#30BDEF"/><path d="M75.376 68.575s-4.08-3.023-8.94-1.465c-7.182 2.304-2.667 8.436-14.038 7.563 0 0 .476-.327 1.102-1.35.626-1.023.407-1.966 1.414-3.87 1.007-1.903.956-3.064.956-3.064s-1.89 1.182-4.905 1.5c-1.55.165-2.5-.014-3.055-.227-.203-.093-.342-.16-.356-.166.016.004 1.755.422 4.729-.361 2.989-.785 3.888-1.762 3.888-1.762s.735.387.432 2.732-1.221 3.947-1.221 3.947l.657-.517s.164.946-.525 2.21c-.2.368-.386.676-.55.927 1.481-.865 2.24-1.787 3.425-4.144 1.781-3.545 4.04-4.494 4.04-4.494s-.971.134-2.32.933c-1.35.8-1.945 1.618-1.945 1.618s.955-2.392 4.636-3.696c3.682-1.303 6.028-.528 6.028-.528s-.352-.01-1.706.176-2.526.83-2.526.83 2.41-.84 6.079-.08c3.67.76 4.7 3.288 4.7 3.288zM35.26 75.052s.683.453 1.782.461c1.099.01 1.914-.766 1.914-.766s-1.058.356-2.096.414c-1.037.058-1.6-.11-1.6-.11zm-.158.893s.636.987 2.876 1.175c2.24.187 3.767-1.006 3.767-1.006s-1.755.7-3.446.63c-1.691-.07-3.198-.8-3.198-.8zm17.62-.153c.986.103 1.98.117 2.97.042 0 0 .931.041 2.636-.44 1.391-.394 1.855-.783 1.981-.914l.04-.043c.051.07 1.028 1.558-6.115 3.983-7.321 2.483-13.236 1.578-13.236 1.578s1.294.789 2.325 1.027c1.03.238 1.499.302 1.499.302s-4.378 2.743-13.488-2.323c-6.68-3.715-10.614-11.186-12.24-14.911l.272-.045c1.583 2.899 4.52 7.924 6.971 10.141 3.552 3.213 5.798 3.757 5.798 3.757s-1.542-1.074-2.245-1.904c-.702-.83-.684-1.024-.684-1.024s3.114 2.495 4.531 3.046c1.417.551 3.5.538 3.5.538s.017.211-1.345.298c-1.362.086-1.517.058-1.517.058s1.2.602 3.12 1.032c1.92.43 2.53.427 2.53.427s-.443.017-1.287-.687c-.844-.705-.862-.784-.862-.784s4.134.17 7.628-.313c3.494-.482 4.62-.987 4.62-.987s-1.326.093-2.847.102c-1.521.009-1.837-.13-1.837-.13s2.83.25 6.59-1.5c.242-.117.472-.224.691-.326z" fill="#24247A"/><path d="M45.667 66.222c.13-.13.255-.264.381-.407 2.958-3.4 4.27-5.616 8.777-8.451 4.506-2.835 8.008-2.093 8.008-2.093s-1.703.35-2.806 1.026l-1.218.748s4.816-1.77 11.181 1.835c6.366 3.607 5.386 9.696 5.386 9.696s-4.08-3.023-8.94-1.464c-7.182 2.303-2.667 8.436-14.038 7.563 0 0 .476-.328 1.102-1.35.626-1.023.407-1.966 1.414-3.87 1.007-1.903.956-3.065.956-3.065s-1.89 1.182-4.905 1.5c-3.016.32-3.755-.661-3.755-.661.131.135.276.257.431.364a7.554 7.554 0 01-1.974-1.371z" fill="#fff"/><path d="M45.667 66.222c.13-.13.255-.264.381-.407 2.958-3.4 4.27-5.616 8.777-8.451 4.506-2.835 8.008-2.093 8.008-2.093-8.303.69-9.932 5.026-15.522 10.366-.395.378-.78.717-1.152 1.021a7.327 7.327 0 01-.492-.436zm13.142-9.18s4.816-1.77 11.181 1.837c2.398 1.356 3.754 3.067 4.511 4.672-.782-1.072-2.1-2.444-4.303-3.89-4.915-3.226-11.389-2.618-11.389-2.618z" fill="#30BDEF"/><path d="M75.376 68.575s-4.08-3.024-8.94-1.465c-7.182 2.303-2.667 8.436-14.038 7.563 0 0 .476-.328 1.102-1.35.626-1.023.407-1.966 1.414-3.87 1.007-1.903.956-3.065.956-3.065s-1.89 1.182-4.905 1.501c-1.55.165-2.5-.014-3.055-.227-.203-.093-.342-.16-.356-.166.016.004 1.755.422 4.729-.361 2.989-.785 3.888-1.762 3.888-1.762s.735.387.432 2.731c-.303 2.345-1.221 3.947-1.221 3.947l.657-.516s.164.946-.525 2.21c-.2.368-.386.676-.55.927 1.481-.866 2.24-1.787 3.425-4.145 1.781-3.544 4.04-4.494 4.04-4.494s-.971.135-2.32.934c-1.35.8-1.945 1.618-1.945 1.618s.955-2.393 4.636-3.696c3.682-1.303 6.028-.528 6.028-.528s-.352-.01-1.706.176-2.526.83-2.526.83 2.41-.84 6.079-.08c3.67.76 4.7 3.288 4.7 3.288zM62.04 63.838c2.828-1.086 6.906-1.267 9.428.339.102.063-1.088-1.644-4.426-1.676-3.338-.031-4.724.465-4.892.836-.167.371-.11.5-.11.5zm-1.492.199s.242.633.622.294c.381-.339.384-.84 0-.849-.383-.008-.622.554-.622.554z" fill="#C1C1E8"/><path d="M29.5 46.63l-5.54 1.232c-.903.08-1.952-.109-2.744-.407-1.11-.419-2.033-1.399-2.361-2.546l-.338-1.18-.203-2.56 4.828-7.652c-.62-.81-.881-1.959-.9-3.04a2.321 2.321 0 01.006-.608c.05-.374.187-.735.346-1.09.555-1.252 1.356-2.593 2.055-3.788 1.009-1.73 2.713-4.52 4.192-5.967l3.893-3.804-.03.833a26.523 26.523 0 011.484-1.296c2.313-1.867 5.164-3.77 7.778-5.157l7.398-3.92c.387-.217.777-.424 1.171-.622L56 2.158l-1.06.98a37.5 37.5 0 014.347-1.383c.93-.23 2.087-.479 3.03-.506l2.388-.074-.415 2.38c-.39 2.234-1.867 4.985-3.266 6.851-1.08 1.44-2.682 3.108-4.327 4.276 1.476.091 2.948.214 4.407.348 2.927.27 5.882.95 8.393 2.256.917.479 2.062 1.191 2.757 1.96l4.011 4.438-6.296-.615c-.44-.043-.963-.042-1.418-.043a64.75 64.75 0 00-3.836.115c1.284.662 2.684 1.511 3.554 2.388l6.298 6.352-.317-.091 1.311 3.026-3.91.721c-.377 0-.799.044-1.172.072-1.597.121-3.202.279-4.8.437a46.405 46.405 0 00-3.59.51L72.186 41.9l-.797.11-7.956-1.031c.065.212.121.426.178.63.128.467.246.938.356 1.413l-12.774 1.74c-2.675-.22-5.428-.325-8.158-.19-.82.042-1.796.093-2.623.243l-1.668.305-.764.713c-1.094 1.015-2.85 1.546-4.213 1.704-1.45.165-3.06-.186-4.269-.907z" fill="#0A0A57"/><path d="M20.427 41.067s4.294-1.248 4.887-1.853c.37-.383.692-.809.96-1.27 0 0-.32.917-.478 1.552-.157.635-.671 2.319-1.547 3.183-.876.864-1.544 1.207-1.544 1.207s1.619 2.124 4.3 1.179c2.682-.946 5.69-5.878 7.84-8.014 2.15-2.136 6.512-4.502 6.512-4.502s-.774-.424-2.181-.275c-1.408.15-1.707.294-1.707.294s1.865-.83 5.003-1.432c3.137-.602 7.119.935 7.119.935s-1.156-1.447-3.17-2.439c-2.015-.99-2.621-1.003-2.621-1.003s5.865-1.246 13.132-1.68c7.267-.433 9.63.244 9.63.244s-1.214-1.225-4.307-2.64c-3.092-1.416-7.84-2.097-7.84-2.097s3.957-1.1 9.038-1.448c5.081-.347 7.037-.157 7.037-.157s-2.654-2.938-9.894-3.606c-7.24-.669-9.873-.466-9.873-.466l1.738-2.22c-.777.08-1.543.249-2.283.502-1.23.42-2.593 1.277-2.593 1.277s1.764-3.527 5.279-6.556c3.515-3.029 5.872-3.687 5.872-3.687s.208.944-1.417 3.628-2.836 3.873-2.836 3.873 2.475-1.247 4.801-4.35c2.327-3.104 2.793-5.771 2.793-5.771s-3.375.101-10.052 3.203-11.807 9.166-11.807 9.166.301-.62 1.29-2.322c.989-1.703 1.297-1.99 1.297-1.99s-3.828 2.032-7.348 4.872-5.215 5.867-5.215 5.867l.064-1.772s-1.393 1.363-3.75 5.397c-2.356 4.034-2.069 4.04-2.069 4.04s-.051 2.378 1.152 2.438c1.202.06 1.33-.591 1.39-1.433.059-.841.073-1.392.073-1.392s.698 2.258 2.619 2.087c1.92-.171 2.478-1.222 2.478-1.222s-.82-1.192.141-2.95c.961-1.757 2.49-3.461 2.49-3.461s-2.106 3.009-2.199 4.118c-.092 1.11.75 1.507.75 1.507s2.843-5.304 5.88-8.4c3.038-3.096 5.64-4.576 5.64-4.576s-.674.486-2.698 2.877c-2.024 2.392-2.638 3.343-2.638 3.343s.853 2.08.755 4.046c-.098 1.966-.635 2.754-.635 2.754s.08-.244.124-.936c.043-.691-.118-1.088-.118-1.088s-.106 1.706-1.872 2.851c-1.767 1.146-5.305 1.456-5.305 1.456s-.36.379-1.456 2.001c-1.095 1.623-1.563 2.532-1.563 2.532s-.075-.416.64-1.993c.714-1.577.712-1.68.712-1.68s-1.323.327-2.13.24a1.891 1.891 0 01-1.23-.627s-.188.35-.748.665c-.56.315-1.008.313-1.008.313l-5.305 7.661zm1.652 3.014l-1.288.152s.273.957 1.23 1.318a4.563 4.563 0 001.814.285s-1.042-.572-1.423-1.072c-.38-.5-.333-.684-.333-.684zm18.225-1.452s3.886-.709 11.601-.068c3.996.332 6.514.717 8.014 1.011l1.743-.236c-.218-.89-.598-2.312-.815-2.376-.319-.092-2.85-1.17-8.839-.795-5.987.376-11.702 2.464-11.702 2.464h-.002zm-9.818 1.813s1.426 1.103 3.324.88c1.898-.222 2.759-1.018 2.759-1.018s-1.263.168-1.972.019c-.708-.15-.97-.377-.97-.377s.265.107.918.14c.398.02.795-.008 1.185-.085 0 0 2.648-2.107 10.4-4.328 7.753-2.22 14.207-1.383 14.207-1.383s-.935-.495-3.007-1.18c-2.073-.684-3.276-.768-3.276-.768s5.967-1.941 11.702-2.511c5.735-.57 6.318-.52 6.318-.52s-3.818-1.97-10.679-3.315c-6.86-1.345-11.116-.581-11.116-.581s2.103.81 4.113 2.208c2.01 1.397 2.12 1.547 2.12 1.547s-3.849.082-7.423.574c-3.574.492-5.197 1.058-5.197 1.058s1.648.502 2.877 1.141c1.228.64 1.386.71 1.386.71s-3.305.808-8.523 3.13-9.145 4.659-9.145 4.659z" fill="#414196"/><path d="M20.427 41.067s.291-.084.733-.22c1.248-1.97 5.085-7.535 5.085-7.535a1.82 1.82 0 01-.514.097l-5.305 7.658zm41.59-37.323c.043-.176.06-.271.06-.271s-3.374.101-10.051 3.203-11.81 9.168-11.81 9.168 7.067-6.495 13.38-9.374c3.456-1.576 6.433-2.347 8.42-2.726h.002zm-19.952 8.847c.55-.884.738-1.06.738-1.06s-3.828 2.033-7.348 4.873c-3.52 2.84-5.214 5.867-5.214 5.867s3.49-3.873 7.507-6.828c2.03-1.495 3.429-2.36 4.317-2.852zm-11.783 8.535l.023-.628s-1.393 1.363-3.75 5.397c-2.356 4.034-2.069 4.042-2.069 4.042s-.051 2.377 1.152 2.437h.014c-.258-.614-.458-1.54-.23-2.786.366-2.003 3.564-6.644 4.86-8.462z" fill="#30BDEF"/><path d="M58.494 31.082s.785.043 2.23.416c1.446.372 2.351 1.035 2.351 1.035s-.814.064-2.405.314c-1.591.25-1.88.306-1.88.306s.306-.204 1.235-.556c.928-.352 1.098-.387 1.098-.387s-.407-.413-1.673-.723c-1.265-.31-1.444-.32-1.444-.32l.488-.085zm-32.222 6.862s-.32.916-.477 1.551c-.158.635-.662 2.291-1.528 3.162l-.003.003-.007.007-.038.038h-.003l-.038.036-.039.037-.019.018-.02.017-.003.003-.034.032v.003l-.035.033-.004.003-.035.031-.005.003-.014.015-.019.017-.004.005-.014.012-.019.016-.006.005-.013.013a1.358 1.358 0 00-.056.05l-.004.005-.014.012-.018.015-.006.005-.012.011-.018.015-.006.006-.012.01-.017.014-.007.006-.011.01-.018.015-.007.005-.01.009-.018.014-.007.006-.01.009-.016.013-.009.007-.026.02-.007.007-.008.008-.018.012-.008.008-.007.006-.018.012-.008.008-.007.006-.016.012-.009.007-.008.007-.015.01-.009.009-.007.005-.016.012-.009.007-.006.004-.016.012-.01.007-.004.004-.015.012-.01.007-.005.004-.014.012-.015.01-.014.011-.01.008-.005.003-.014.01-.01.008h-.005l-.012.01-.015.01-.013.01-.012.008-.002.003-.014.008-.012.01-.014.01a4.22 4.22 0 01-.453.286s2.495 1.136 5.174.19c2.679-.948 4.817-4.888 6.969-7.026 2.151-2.138 6.512-4.503 6.512-4.503s-.775-.424-2.182-.274c-1.045.111-1.48.22-1.633.267l2.286.322s-3.437 2.142-4.425 2.994c-.988.853-.997 1.015-.997 1.015s.093-.485.642-1.023c.548-.538.78-.768.78-.768s-.936.335-2.14 1.871c-1.202 1.537-1.288 1.842-1.288 1.842l1.07-1.193s-.368 1.14-1.978 2.84c-1.609 1.699-2.728 3.003-4.378 3.36-1.65.356-3.454.067-3.454.067s.531-.407 1.152-1l-.094-.036c.286-.308.55-.636.79-.981.695-1.018.869-2.885.869-2.885l1.388-3.21-1.514 2.211zm11.309-5.423c.44-.183 2.197-.869 4.894-1.385 3.139-.602 7.116.935 7.116.935s-.737-.924-2.062-1.801c-1.074-.051-2.976-.047-4.925.388-2.743.613-4.74 1.703-5.023 1.863zm7.228-3.603c-.54-.204-.826-.265-.943-.282l.944.282zm-1-.29c.217-.045 5.995-1.251 13.124-1.676 5.902-.35 8.57.029 9.364.185-.986-.216-4.531-.951-7.663-1.094-3.683-.167-5.77.227-5.77.227l3.004-.758s-1.374-.196-5.28.305c-3.906.502-8.02 2.632-8.02 2.632l1.24.18zm10.606-6.17s3.956-1.1 9.038-1.447c5.08-.348 7.036-.157 7.036-.157s-1.303-.24-4.553-.502c-3.25-.263-5.188-.292-5.188-.292l2.432-.293s-.94-.136-3.634-.33c-2.694-.195-3.271-.051-3.271-.051s1.284.184 2.147.423c.863.238.955.275.955.275s-.11-.189-2.658.226c-2.547.414-4.927 1.305-4.927 1.305l2.623.843zm-3.592-5.803l1.638-2.097-.066.006c-.126.035-.488.18-1.53.749-1.563.852-2.124 1.625-2.124 1.625l2.082-.283zm-3.237-.318s1.764-3.527 5.279-6.556c3.515-3.029 5.871-3.687 5.871-3.687s.209.944-1.416 3.628-2.836 3.873-2.836 3.873 2.475-1.247 4.801-4.35c1.567-2.09 2.291-3.982 2.597-4.995 0 0-2.885.7-5.804 2.244-2.92 1.544-5.585 4.231-5.585 4.231s-.367.11.636-.977c1.003-1.086 1.324-1.421 1.324-1.421s-1.925 1.065-3.523 3.177a260.145 260.145 0 00-1.675 2.224l1.606-1.22s-1.422 1.77-1.726 2.826c-.304 1.055-.356 1.19-.356 1.19l.807-.187zm-22.692 15.54c.17.279.407.48.747.497 1.2.059 1.33-.592 1.39-1.433.059-.842.073-1.393.073-1.393s1.786 1.938 3.302 1.299c.838-.352 1.317-.697 1.578-.934.048.176.122.343.218.498 0 0-.556 1.051-2.478 1.222-1.922.171-2.62-2.087-2.62-2.087s-.243 1.897-1.157 2.286c-.34.148-.716.128-1.053.045zm9.901-7.827c-.28.404-2.076 3.043-2.163 4.067-.092 1.11.748 1.512.748 1.512s2.843-5.303 5.88-8.4c2.862-2.916 5.337-4.398 5.616-4.563-.23.081-3.98 1.41-7.727 6.025-3.87 4.764-3.373 5.162-3.442 4.463-.07-.698 1.088-3.105 1.088-3.105v.001zm10.093-7.387c-.11.085-.831.679-2.686 2.866-2.027 2.39-2.638 3.342-2.638 3.342s.853 2.08.755 4.046c-.097 1.967-.635 2.754-.635 2.754s.081-.244.124-.935c.044-.692-.118-1.088-.118-1.088s-.105 1.705-1.872 2.85c-1.766 1.146-5.304 1.457-5.304 1.457s-.36.378-1.456 2.001c-1.028 1.524-1.503 2.416-1.558 2.521l-.005.01 3.325-4.184s.52.266 3.24-.362c2.722-.63 3.317-1.986 3.317-1.986s-.068.255-.299.756c-.23.502-.74 1.054-.74 1.054s2.25-.767 3.334-2.86c1.083-2.092.282-4.818.282-4.818s.088.374-.017 1.527c-.106 1.154-.44 1.45-.44 1.45s.035-.238-.038-1.619c-.072-1.381-.571-2.955-.571-2.955l4-5.827zM21.007 44.696c.326.025.496.045.705.042.21-.003.298-.009.298-.009.159.416.436.776.797 1.036.34.066.685.09 1.03.07 0 0-1.042-.572-1.423-1.071-.38-.5-.333-.685-.333-.685l-1.288.152c.052.163.123.32.214.465zM52 30.208c2.363-.018 6.704.108 11.42 1.029 4.497.876 7.02 1.643 8.262 2.087.13-.01.26-.013.39-.008 0 0-3.817-1.97-10.678-3.315-6.86-1.345-11.116-.582-11.116-.582s.72.276 1.722.787v.002zm11.67 3.889c-1.012-.026-2.953.017-5.655.493-4.097.723-7.966 2.133-7.966 2.133l3.306.408s-4.651.731-7.673 1.698c-3.022.967-5.175 2.003-5.175 2.003l1.65-1.085s.427-.326-2.754 1.246c-3.18 1.573-4.328 2.553-4.328 2.553s-.908.051-1.542.036c-.633-.015-.661-.05-.661-.05s.058.184.65.723c.594.538.987.515.987.515s-1.616.466-2.82.07c-.55-.182-.92-.294-1.158-.363.254.18 1.574 1.046 3.279.847 1.9-.222 2.759-1.018 2.759-1.018s-1.263.168-1.972.018c-.708-.15-.97-.376-.97-.376s.265.106.918.14c.397.02.796-.008 1.185-.086 0 0 2.648-2.106 10.4-4.327 7.753-2.22 14.208-1.384 14.208-1.384s-.936-.494-3.008-1.179c-2.073-.684-3.276-.769-3.276-.769s4.607-1.497 9.616-2.248v.002zm-17.43 8.196c2.814-.532 7.025-1.188 10.467-1.125 1.503.034 3 .188 4.48.458-.126-.371-.247-.641-.34-.669-.318-.092-2.85-1.17-8.838-.795-5.988.376-11.703 2.464-11.703 2.464s1.986-.359 5.934-.333z" fill="#24247A"/><path d="M24.248 42.68c-.488.48-1.541 1.206-1.541 1.206s1.619 2.124 4.3 1.179c2.681-.946 6.523-6.705 7.84-8.014 1.317-1.309 1.083-.977 1.72-1.453 1.395-1.045 2.97-2.001 3.92-2.556l.068-.038.192-.111.054-.031.005-.003.056-.032.012-.007.042-.023.026-.016.024-.013.003-.003.046-.024.045-.026.004-.003.04-.022.014-.007.024-.014.024-.013.012-.007.032-.018.03-.015.008-.005.02-.012.013-.007.01-.004.017-.01h.003l.016-.009.011-.005.005-.003h.005l.005-.003s-.775-.425-2.182-.275c-1.319.14-1.665.275-1.704.292.09-.04 1.94-.843 5-1.43 3.147-.61 7.124.926 7.124.926h-.003v-.006l-.003-.004v-.003l-.005-.005-.004-.004-.005-.005-.004-.004-.003-.004-.005-.006-.005-.007-.004-.007-.008-.006-.004-.005-.006-.008-.005-.006-.007-.009-.008-.008-.007-.008-.007-.008-.006-.006-.003-.004-.009-.009-.007-.009-.009-.01-.01-.01-.003-.004-.007-.007-.01-.012-.007-.007-.003-.003-.01-.011-.011-.012-.01-.011-.012-.012-.006-.005-.006-.008-.013-.013-.01-.01v-.003l-.013-.013-.013-.013h-.003l-.01-.012-.013-.013-.009-.009-.004-.005-.014-.015-.015-.014-.014-.015-.015-.015-.005-.006-.009-.009-.016-.016-.011-.011-.005-.005-.016-.015-.016-.016-.014-.014-.017-.018-.009-.007-.007-.009-.017-.017-.016-.015-.006-.005-.03-.03a10.436 10.436 0 00-2.58-1.813c-2.014-.991-2.621-1.003-2.621-1.003s5.865-1.247 13.132-1.68c7.267-.433 9.63.244 9.63.244s-6.833-3.098-12.128-2.857c-5.295.241-7.993 1.845-7.993 1.845l2.064-1.736s-1.738.12-7.365 2.993c-.314.16-.62.324-.917.491-.187 1.228-.535 1.74-.535 1.74s.08-.245.124-.936a3.45 3.45 0 00-.01-.564l-.26.152c-.199.602-.662 1.49-1.72 2.177-.732.476-1.77.806-2.732 1.031-1.955 1.677-3.049 3.008-3.049 3.008a6.78 6.78 0 00-.299.368c-1.584 2.12-3.037 4.245-3.037 4.245a7.884 7.884 0 00-.055-1.216c-.082-.684.074-1.367.074-1.367s-1.054 1.222-1.898 2.338c-.844 1.116-1.74 2.891-2.606 3.744zm19.644-7.875s4.237-.468 6.331-.024c2.094.445 2.257.701 2.257.701l-2.1.434c1.269.06 2.533.19 3.787.392l-.113.036s1.202.084 3.276.769c2.073.685 3.008 1.179 3.008 1.179s-6.456-.839-14.207 1.384c-7.752 2.222-10.4 4.327-10.4 4.327-.39.077-.788.106-1.186.085-.653-.033-.919-.14-.919-.14s.263.227.971.377c.709.15 1.972-.019 1.972-.019s-.859.795-2.76 1.018c-1.9.223-3.322-.882-3.322-.882s3.927-2.337 9.145-4.659c5.218-2.322 8.523-3.13 8.523-3.13s-.159-.07-1.386-.709c-1.228-.639-2.877-1.14-2.877-1.14zM22.08 44.08l-1.288.152s.273.957 1.23 1.318a4.563 4.563 0 001.814.285s-1.042-.572-1.422-1.072c-.381-.5-.334-.683-.334-.683zm18.225-1.452s3.886-.709 11.601-.068c3.996.332 6.514.717 8.014 1.012l1.743-.237c-.218-.89-.598-2.312-.815-2.375-.319-.093-2.85-1.171-8.839-.796-5.987.376-11.702 2.464-11.702 2.464h-.002z" fill="#fff"/><path d="M24.248 42.68l-.022.02-.004.003-.015.015-.005.004-.003.003-.02.02-.024.02-.003.004h-.003l-.021.02-.01.007-.044.04-.003.004-.017.014-.009.007-.007.008-.017.014-.005.004-.021.019-.008.006-.018.016-.01.008-.008.006-.017.015-.015.012v.003l-.019.015-.017.014-.013.012-.006.004-.017.014-.009.006-.01.01-.019.015-.017.013-.014.013-.004.003-.028.022-.01.008-.019.015-.003.003-.016.011-.015.013-.003.003-.019.015-.012.008-.007.006-.018.015-.007.004-.012.011-.02.015-.02.014-.01.01-.008.005-.019.014-.007.005-.012.01-.018.014-.018.013-.014.011h-.005l-.018.015-.009.006-.01.008-.019.014-.015.011-.016.012h-.003l-.019.013-.009.007-.008.008-.02.013h-.003l-.013.01-.016.012-.02.012-.01.009-.006.005-.018.012-.005.005-.012.008-.017.013-.016.012-.012.009-.005.004-.016.011c-.242.177-.42.3-.42.3s1.619 2.124 4.3 1.178c2.681-.945 6.523-6.704 7.84-8.013 1.317-1.309 1.083-.977 1.72-1.453 1.395-1.045 2.97-2.002 3.92-2.556l.068-.039.192-.11.055-.031.004-.004.056-.031.012-.007.042-.023.026-.016.024-.013.003-.003.047-.025.044-.026.004-.003.04-.021.014-.007.024-.015.025-.013.011-.007.032-.017.03-.016.008-.004.02-.012.013-.007.01-.004.017-.01h.003l.016-.01.011-.005.005-.003h.005l.005-.003s-.775-.424-2.182-.274c-1.045.111-1.479.22-1.633.267l2.287.322s-3.438 2.142-4.426 2.994c-.988.853-.997 1.015-.997 1.015s.094-.485.642-1.023l.78-.768s-.936.334-2.139 1.871c-1.203 1.537-1.288 1.842-1.288 1.842l1.069-1.194s-.368 1.142-1.978 2.84c-1.609 1.7-3.603 3.99-5.25 4.35-1.645.359-2.58-.922-2.58-.922l.08-.067a13 13 0 001.006-.958l-.028-.01c.285-.309.55-.637.79-.981.411-.6.639-1.497.757-2.132-.674 1.056-1.35 2.305-2.027 2.971zm10.941-8.51c.281-.249 1.195-.433 1.553-.42-.553-.411-1.087-.1-1.553.42zm-1.823 2.357c.153-.199.523-.773 1.438-1.362.915-.589 1.625-.727 1.625-.727s-.2-.368-1.222.225-1.84 1.864-1.84 1.864zm4.215-4.006c.44-.181 2.196-.865 4.894-1.385 3.139-.602 7.116.935 7.116.935h-.003v-.006l-.003-.004v-.003l-.005-.005-.004-.004-.005-.005-.004-.004-.003-.004-.005-.006-.005-.007-.005-.007-.007-.006-.004-.005-.006-.009-.005-.005-.008-.009-.007-.008-.007-.008-.007-.008-.006-.006-.003-.004-.009-.009-.007-.009-.009-.01-.01-.01-.003-.004-.007-.007-.01-.012-.007-.007-.003-.003-.01-.011-.012-.012-.01-.011-.012-.012-.005-.005-.006-.008-.013-.013-.01-.01v-.003l-.013-.013-.013-.013h-.003l-.01-.012-.013-.013-.009-.009-.004-.005-.014-.015-.015-.014-.014-.015-.015-.015-.005-.006-.01-.009-.015-.016-.011-.011-.005-.005-.016-.015-.016-.016-.014-.014-.017-.018-.009-.007-.007-.01-.017-.016-.016-.015-.006-.005-.03-.03a10.578 10.578 0 00-1.472-1.175c-1.074-.051-2.976-.047-4.925.388-2.77.584-4.767 1.674-5.051 1.833zm7.228-3.603c-.54-.203-.826-.264-.943-.281l.944.281zm-1-.289c.217-.046 5.995-1.252 13.124-1.677 5.902-.35 8.57.03 9.364.185-.986-.216-4.531-.95-7.663-1.093-3.683-.168-5.77.226-5.77.226l3.004-.758s-1.374-.196-5.28.306c-3.906.501-8.02 2.632-8.02 2.632l1.24.18zm-1.594-1.727c-.342.168-.7.348-1.077.54-.313.16-.618.324-.916.49-.187 1.228-.535 1.74-.535 1.74s.08-.244.124-.936a3.45 3.45 0 00-.01-.564l-.26.153c-.2.602-.662 1.49-1.72 2.176-.732.476-1.77.807-2.732 1.032a35.39 35.39 0 00-.851.756c.458-.06 1.052-.167 1.825-.346 2.722-.63 3.317-1.985 3.317-1.985s-.069.254-.3.756c-.23.501-.742 1.052-.742 1.052s2.25-.768 3.334-2.86c.333-.642.487-1.342.542-2.004h.001zM21.007 44.697c.326.024.496.044.705.041.21-.003.298-.008.298-.008.159.415.436.775.797 1.036.34.066.685.09 1.03.07 0 0-1.042-.572-1.423-1.072-.38-.5-.333-.685-.333-.685l-1.288.153c.052.163.123.32.214.465zm31.105-8.651c-1.26.386-2.062.678-2.062.678l3.306.407s-4.651.732-7.673 1.698c-3.022.967-5.175 2.004-5.175 2.004l1.65-1.086s.427-.325-2.754 1.247c-3.18 1.573-4.328 2.553-4.328 2.553s-.908.05-1.542.036c-.633-.015-.661-.051-.661-.051s.058.185.65.723c.594.539.987.515.987.515s-1.616.466-2.82.07c-.55-.181-.92-.294-1.158-.363.254.18 1.574 1.046 3.279.847 1.9-.222 2.759-1.018 2.759-1.018s-1.263.169-1.972.019c-.708-.15-.97-.377-.97-.377s.265.107.918.14c.397.02.796-.008 1.185-.085 0 0 2.648-2.107 10.4-4.328 7.753-2.22 14.208-1.383 14.208-1.383s-.936-.495-3.008-1.18c-2.073-.683-3.276-.768-3.276-.768l.113-.037a38.22 38.22 0 00-2.056-.265v.004zm-5.872 6.248c2.814-.533 7.025-1.188 10.467-1.126 1.503.035 3 .188 4.48.458-.126-.37-.247-.64-.34-.668-.318-.092-2.85-1.171-8.838-.795-5.988.375-11.703 2.463-11.703 2.463s1.986-.358 5.934-.332z" fill="#C1C1E8"/><path d="M31.67 42.633s2.783-3.877 5.667-6.272c2.883-2.394 4.021-2.858 4.021-2.858.295.417.485.898.554 1.404.126.86-.017 2.094-.017 2.094l-1.12-1.908-.296 1.439-1.029-.6-.158 1.12s-.611.288-1.986 1.29c-1.374 1-2.045 1.607-2.045 1.607s.636-.444 2.342-1.368c1.706-.924 2.163-1.069 2.163-1.069l.102-.742 1.056.585.16-1.025.88 1.138.204-.968s.385.725.342 1.124c-.043.4-.58.51-.58.51s-.801.197-4.684 1.69c-3.883 1.491-5.576 2.809-5.576 2.809z" fill="#fff"/><path d="M31.67 42.633s2.783-3.877 5.667-6.272c2.883-2.394 4.021-2.858 4.021-2.858.295.417.485.898.554 1.404.126.86-.017 2.094-.017 2.094l-1.133-1.953-.74 1.217.458.267.298-1.439 1.12 1.908a7.217 7.217 0 01-.06-.866c-.014-.591-.458-1.669-.458-1.669s-2.333 1.18-5.355 3.837c-2.265 1.992-3.71 3.606-4.293 4.29l-.062.04zm7.794-6.693l-.014-.008-.158 1.12a6.36 6.36 0 00-.594.339l.738-1.49.028.04zm-4.038 3.899c.284-.184.957-.6 2.174-1.259 1.706-.923 2.164-1.07 2.164-1.07l.101-.74.422.233-.204.674-4.66 2.16.003.002zm5.498-2.512l.16-.997.398.515-.379.662-.18-.18zm1.04.14l.204-.967s.385.725.342 1.124c-.026.255-.25.388-.413.455l-.133-.611z" fill="#C1C1E8"/><path d="M35.17 29.388l2.821-4.52s.366 2.624-.343 3.356c-.709.732-2.478 1.164-2.478 1.164z" fill="#fff"/><path d="M35.928 22.417s.93-1.461 2.944-3.225 3.932-2.684 3.932-2.684-.913-.707-3.642 1.567c-2.73 2.274-3.234 4.342-3.234 4.342zm7.004-6.592a.99.99 0 00.936-.031c.487-.283.96-.662.69-.683-.272-.021-.498-.147-.856.09a7.19 7.19 0 00-.77.624zm-.025 5.657s.468.318.616 1.52a4.378 4.378 0 01-.279 2.138s.968-1.468.78-2.698c-.189-1.23-1.117-.96-1.117-.96zm1.455-.426s.519.148.692.797c.173.648-.294 1.485-.294 1.485s.971-.776.686-1.618c-.284-.843-1.084-.664-1.084-.664z" fill="#24247A"/><path d="M58.646 14.08l-1.701.42-1.294.9s7.33-.084 12.146 2.109c4.816 2.193 5.859 3.296 5.859 3.296s-2.165-2.59-5.775-4.25c-3.611-1.66-9.235-2.475-9.235-2.475zm.368 65.373l.148-1.15c-4.27 2.16-7.6 2.944-12.36 3.014 4.153.934 8.21.119 12.062-1.544l.15-.32z" fill="#30BDEF"/><path d="M79.784 41.166l7.89-1.17c1.077-.16 2.105-.145 2.953.101 1.054.306 1.641.921 1.465 1.76l-1.95 9.319c-.168.796-.968 1.537-2.077 2.111-.93.48-1.966.792-3.028.95l-6.804 1.01a9.356 9.356 0 01-1.425.106l-.022.109-10.657 1.581c-1.076.16-2.107.153-2.96-.097-.808-.232-1.34-.65-1.467-1.21l-9.858 3.343-.017.088-.43.064-3.222 1.094.135-.635-7.135 1.06c-1.069.158-2.095.148-2.945-.093-.026.014-.051.028-.08.042-.93.48-1.966.79-3.027.95l-6.804 1.01c-1.153.171-2.24.137-3.072-.2-.644-.258-1.113-.633-1.306-1.125l-13.586 4.608.292-1.399-7.097 2.41 2.974-14.209-3.622-1.965 27.356-4.064-.403 1.925c.362-.093.728-.167 1.097-.222l6.804-1.01h.012l42.016-6.242z" fill="#0A0A57"/><path d="M14.928 51.805l3.664-.483-.387 3.334-1.466.193c-.738.097-1.285-.016-1.642-.34-.291-.266-.41-.626-.358-1.081l.189-1.623zm-3.009 10.237c-.791.104-1.46-.097-2.008-.603-.482-.448-.827-1.082-1.035-1.903a6.327 6.327 0 01-.151-2.301A7.035 7.035 0 019.953 54c.485-.7 1.078-1.227 1.778-1.579a3.69 3.69 0 011.167-.349l.564-.074-1.162 9.994-.38.05zm2.009-4.863l4.046-.533-.209 1.792c-.121 1.047-.479 1.822-1.071 2.325-.598.512-1.528.852-2.789 1.018l-.52.068.543-4.67zm12.891-6.939l.571-.076c1.813-.239 2.916.414 3.31 1.958.156.635.184 1.386.084 2.252-.17 1.459-.59 2.698-1.262 3.716-.793 1.194-1.891 1.883-3.293 2.068l-.572.075 1.162-9.994zM23.89 60.465c-1.803.237-2.892-.52-3.265-2.275-.153-.712-.175-1.536-.067-2.47.222-1.905.906-3.318 2.052-4.24.675-.547 1.488-.884 2.441-1.009l.572-.075-1.162 9.994-.572.075zm14.959-11.809l.615-.081c2.072-.273 3.197.478 3.376 2.252.058.537.044 1.175-.042 1.915a10.425 10.425 0 01-.48 2.145 6.657 6.657 0 01-.904 1.811c-.775 1.076-1.812 1.7-3.111 1.87l-.616.082 1.162-9.994zm-5.16.679l3.943-.52-1.16 9.98-3.943.52 1.16-9.98zm12.484-1.644l3.943-.519-1.16 9.98-3.943.519 1.16-9.98zm4.125 8.597c.118-1.013.784-1.778 1.999-2.295.466-.196 1.053-.341 1.761-.434l.579-.077-.346 2.982-4.076.536.083-.712zm8.352-10.239l3.944-.52-1.162 9.995-3.943.519 1.161-9.994zm6.959-.916l3.943-.52-1.16 9.98-3.944.519 1.16-9.98zm4.844 2.037c.125-1.082.483-1.845 1.074-2.289.558-.415 1.553-.718 2.985-.906l.74-.098-.161 1.388c-.129 1.107-.501 1.932-1.118 2.476-.626.545-1.638.91-3.035 1.094l-.69.09.204-1.755zm-.293 2.519l.689-.09c1.378-.182 2.33-.038 2.858.433.5.45.686 1.24.554 2.37l-.169 1.455-.74.097c-1.402.185-2.353.103-2.851-.246-.498-.354-.683-1.082-.555-2.183l.214-1.836zm13.137-6.885l4.068-.536-.323 2.776-.762.1c-1.325.175-2.204.086-2.64-.267-.356-.29-.49-.817-.4-1.581l.057-.492zm-5.211.686l3.943-.52-.468 4.025 2.94-.387-.224 1.917-2.939.386-.47 4.04-3.942.518 1.16-9.979zm4.124 8.597c.118-1.014.785-1.779 2-2.295.465-.197 1.052-.341 1.76-.435l.58-.076-.347 2.981-4.075.537.082-.712z" fill="#fff"/><mask id="a" style="mask-type:alpha" maskUnits="userSpaceOnUse" x="4" y="47" width="84" height="25"><path d="M4.567 57.883l81.817-9.978 1.609 13.19-81.817 9.977-1.609-13.19z" fill="#C4C4C4"/></mask><g mask="url(#a)" fill="#C1C1E8"><path d="M14.781 51.671l3.574-.47-.378 3.25-1.43.189c-.719.094-1.253-.016-1.6-.333-.285-.258-.401-.61-.35-1.053l.184-1.583zm-2.933 9.983c-.772.101-1.425-.095-1.959-.589-.47-.436-.806-1.055-1.009-1.855a6.17 6.17 0 01-.147-2.244 6.86 6.86 0 011.197-3.154c.473-.683 1.052-1.197 1.734-1.54a3.6 3.6 0 011.138-.34l.55-.073-1.133 9.746-.371.049zm1.958-4.743l3.946-.519-.204 1.747c-.118 1.022-.466 1.777-1.044 2.267-.584.5-1.49.83-2.72.993l-.507.066.53-4.554zm12.864-6.805l.557-.073c1.767-.233 2.843.403 3.226 1.909.153.619.181 1.35.083 2.196-.166 1.422-.576 2.63-1.23 3.624-.774 1.164-1.845 1.836-3.212 2.016l-.558.073 1.133-9.745zm-2.856 9.972c-1.758.232-2.82-.508-3.184-2.218-.149-.695-.17-1.498-.064-2.41.216-1.857.882-3.235 2-4.134.658-.533 1.452-.86 2.38-.983l.558-.074-1.133 9.746-.557.073zm14.879-11.555l.6-.079c2.02-.266 3.117.466 3.292 2.197.056.523.042 1.146-.041 1.867-.084.72-.24 1.418-.469 2.092a6.493 6.493 0 01-.88 1.766c-.756 1.049-1.767 1.657-3.035 1.824l-.6.079 1.133-9.746zm-5.032.662l3.845-.506-1.13 9.731-3.846.507 1.131-9.732zm12.467-1.641l3.845-.506-1.131 9.731-3.845.506 1.13-9.73zm4.022 8.383c.115-.988.765-1.734 1.95-2.238.453-.191 1.026-.332 1.717-.423l.564-.075-.338 2.907-3.974.524.081-.695zm8.437-10.023l3.845-.506-1.132 9.745-3.845.506 1.133-9.745zm7.078-.932l3.845-.506-1.13 9.731-3.846.506 1.131-9.73zm4.724 1.987c.123-1.055.472-1.799 1.047-2.232.545-.405 1.515-.7 2.911-.884l.722-.095-.157 1.354c-.126 1.078-.489 1.883-1.09 2.413-.61.532-1.598.888-2.96 1.067l-.672.088.199-1.711zm-.286 2.456l.672-.088c1.344-.177 2.273-.036 2.787.422.489.44.669 1.21.54 2.313l-.164 1.417-.722.095c-1.367.18-2.294.1-2.78-.24-.485-.345-.666-1.055-.54-2.129l.207-1.79zm13.103-6.752l3.967-.522-.315 2.706-.743.098c-1.291.17-2.15.083-2.574-.26-.347-.284-.477-.798-.39-1.543l.055-.48zm-5.081.669l3.845-.507-.456 3.924 2.866-.377-.218 1.87-2.865.376-.458 3.939-3.845.506 1.13-9.731zm4.022 8.383c.115-.989.765-1.735 1.95-2.238.453-.192 1.026-.333 1.717-.424l.564-.074-.338 2.907-3.974.523.081-.694z"/></g><path d="M72.266 42.392l-1.85.356-.453.809c-.18.321-.46.575-.798.723a1.884 1.884 0 00-.102.283.07.07 0 000 .035 1.696 1.696 0 01-2.698 1.827 1.694 1.694 0 01-2.37.33l-.004.004c-.003 0-.349-.26-.774-.65a1.7 1.7 0 01-2.608.533l-.017-.014c-.034-.03-.117-.102-.231-.207a1.704 1.704 0 01-1.85.096c-.237-.13-1.102-.633-1.617-1.32a4.243 4.243 0 01-.623-1.24c-.024-.02-.048-.039-.07-.059l-.024-.022a1.51 1.51 0 01-.106-.107c-.4-.428-1.545-1.902-.907-4.231.777-2.84 3.966-3.288 3.976-3.29.245-.037.496-.02.734.051 1.235-.771 2.644-.65 3.129-.578.261.027.513.114.736.255 1.772-.744 3.563-.36 3.569-.36.29.06.56.194.783.392 1.208-.059 2.009.115 2.647.463.706.382 1.058.842 1.466 1.4.64.875 1.247 2.084 1.25 2.088a1.697 1.697 0 01-1.188 2.433z" fill="#0A0A57"/><path d="M71.944 40.726l-2.03.388-.6-1.018.097.97-.928 1.656s-.48-1.488-.936-1.775c-.456-.288-.9.07-.9.07s-.213-3.23 1.51-3.317c1.724-.086 2.117.407 2.68 1.175.563.767 1.107 1.85 1.107 1.85zm-12.67 2.2s-1.198-1.208-1.375-1.098c-.176.11-.567.797-.567.797s-1.01-.878-.526-2.641c.483-1.764 2.585-2.058 2.585-2.058s-.543 1.04-.615 2.199c-.072 1.159.498 2.803.498 2.803v-.002zm-1.474.182l.237-.638s1.165.657 1.17 1.109c.007.451.158 1.463.158 1.463s-.757-.391-1.115-.866c-.358-.474-.45-1.067-.45-1.067zm2.582.042s-.082-.544.478-.56c.56-.016.984.403.984.403s-.26 1.221-.235 1.697c.024.475.092.65.092.65s-1.133-.96-1.289-1.334c-.155-.374-.03-.855-.03-.855v-.001zm-.25-.922s.047-.503.5-.477c.453.024 1.527.858 1.527.858s-.729-2.177-.49-3.19c.24-1.013 1.157-2.006 1.157-2.006s-1.892-.423-2.774 1.093c-.88 1.515-.696 2.614-.495 3.05.13.27.328.503.575.673v-.001zm3.227.092s.114-.458.72-.25a1.091 1.091 0 01.722.738s-.188.89-.082 1.547c.105.657.297 1.045.297 1.045s-1.443-1.083-1.673-1.75c-.23-.669.016-1.329.016-1.329zm3.605-5.04s-1.055.815-1.235 1.39c-.18.575-.188 1.225-.188 1.225s-.445-.443-.815-.49a1.815 1.815 0 00-.636.027s.96.362 1.302 1.006c.342.643.183 2.2.183 2.2s-.797-1.264-1.37-1.414c-.572-.15-1.033.434-1.033.434s-1.6-.92-.225-2.93c1.375-2.01 4.017-1.447 4.017-1.447zm.043 4.04l.893 1.672s-.387.715-.493 1.192c-.06.31-.046.63.042.932 0 0-1.015-1.462-.979-2.273.037-.811.537-1.522.537-1.522z" fill="#414196"/><path d="M71.944 40.726l-2.03.388-.6-1.018.097.97-.928 1.656s-.48-1.488-.936-1.775c-.456-.288-.9.07-.9.07s-.008-.11-.01-.29c.032-.269.193-.6.836-.438 1.019.258 1.324.857 1.324.857l.224-.644-.156-1.2s.993.319 1.273.34c.189.015.64-.27.916-.458.323.499.62 1.013.89 1.542zm-4.53 4.242c0-.004-.43-.844-.214-1.633.14-.512.24-.902.291-1.114l.411.77s-.386.716-.493 1.193a1.94 1.94 0 00.002.785h.002zm-8.049.074s-.685-.853-.88-1.504c-.117-.393-.218-.749-.281-.967.322.2 1 .662 1.004 1.009.004.451.155 1.463.155 1.463l.002-.001zm-2.469-3.055c.16-.254.384-.572.615-.763.434-.361.573-.083.573-.083s.07-1.551.489-2.24c.419-.689.82-.977.82-.977s-.543 1.04-.615 2.2c-.072 1.158.498 2.804.498 2.804s-1.198-1.209-1.375-1.098c-.176.11-.567.796-.567.796s-.248-.212-.44-.638h.002zm4.78 3.333l-.035-.282c.01.103.031.205.062.303l-.026-.021zm-.035-.286s-.622-.85-.657-1.432c-.027-.44-.021-.84-.017-1.01.51.035.879.401.879.401s-.26 1.222-.235 1.697c.005.141.015.254.028.344h.002zm-1.787-3.047c-.036-.296-.012-.65.244-.835.488-.352.757-.235.757-.235s-.255-.981.282-1.938c.537-.957 1.69-1.567 1.69-1.567s-.916.992-1.156 2.005c-.24 1.014.488 3.192.488 3.192s-1.072-.832-1.527-.856c-.455-.025-.5.477-.5.477a1.67 1.67 0 01-.28-.242h.002zm5.132 3.344s-.892-1.308-.964-1.907c-.051-.426.002-1.042.038-1.36l.02.006a1.09 1.09 0 01.72.737s-.187.89-.081 1.547c.05.335.14.663.265.977h.002zm-2.144-3.95v-.029s.387-.947 1.254-.741c.867.206.905.222.905.222s.16-.365-.475-.804c-.635-.439-1.12-.36-1.12-.36s.38-.734.792-.815c.413-.081.449-.065.449-.065s.577-.977 1.177-1.573a4.729 4.729 0 011.142.064s-1.055.814-1.235 1.39a4.922 4.922 0 00-.188 1.224s-.445-.442-.815-.489a1.815 1.815 0 00-.636.026s.96.363 1.302 1.006c.342.644.183 2.2.183 2.2s-.797-1.263-1.37-1.413c-.572-.15-1.033.434-1.033.434a1.591 1.591 0 01-.334-.276h.002z" fill="#24247A"/><path d="M23.69 47.45l.3-.152.055.105.657-.15.117-.209.23.13.782-.18-1.696 3.021-.147-.458c-.139.27-.29.61-.348.87-.023.109-.03.22-.024.332.004.078.014.156.03.232l.01.051.013.045-.095.967-.549-.421-.116-.167c-.412-.59-1.036-1.693-1.005-2.419.023-.495.196-.995.436-1.425l.142-.255.288.038c.078.01.157.019.237.026l.105.01.038-.153.101.19.438-.027zm-2.529 1.712c-.075.38-.126.895-.066 1.267v.003a3.337 3.337 0 00.224.822l.011.031.007.013-.064.618-.58-.087c-.533-.4-1.516-1.235-1.73-1.861l-.012-.035-.617-.48c-.047.23-.087.464-.123.696-.029.194-.07.451-.06.644.006.095.014.19.025.285v.01c.007.065.019.13.036.194l-.31.793-.372-.32-.11-.093-.039-.033c-.301-.263-.747-.673-1.008-1.01l-.475-.476.019.17c.029.257.062.517.102.774l.078.522-.78-.12c-.396-.215-.862-.556-1.12-.903a2.918 2.918 0 01-.491-1.127l-.318-.277c-.222-.192-.421-.515-.537-.779-.008-.022-.019-.044-.027-.065l-.051-.117.005-.009c-.222-.636-.199-1.319-.02-1.97.234-.86.831-1.477 1.614-1.874a4.27 4.27 0 011.083-.373l1.383-.992-.74 1.403c.459-.571 1.116-.884 1.868-.957l.313-.031.108.254.425 1.002-.038.058.357.56c.33.516.764.959 1.273 1.301l.033.022a4.054 4.054 0 001.181.538l.279.083.024.289a7.4 7.4 0 01-.013 1.384l-.13 1.234-.617-.983v.002zm-5.081-.328a1.786 1.786 0 01-.298-.25c.043.148.087.29.132.417l.182.52c.007-.067.017-.135.03-.198a1.054 1.054 0 01.058-.376l.014-.039-.105-.066-.013-.008z" fill="#0A0A57"/><path d="M27.524 47.056l-.251.048.25-.048zm-2.54.573l-.742 1.32a8.56 8.56 0 00-.439-1.075l1.18-.245zm2.535-.581l.005.008-.005-.008zM15.51 49.143s-1.137-1.146-1.306-1.04c-.17.105-.537.754-.537.754s-.958-.832-.5-2.504c.46-1.671 2.454-1.954 2.454-1.954s-.515.986-.583 2.087c-.068 1.102.472 2.657.472 2.657zm-1.398.172l.223-.604s1.105.62 1.11 1.051c.006.43.149 1.387.149 1.387s-.719-.371-1.058-.821c-.34-.45-.424-1.014-.424-1.014zm2.447.04s-.076-.515.454-.531c.53-.016.933.382.933.382s-.245 1.159-.222 1.61c.023.45.086.615.086.615s-1.073-.91-1.221-1.265c-.149-.356-.03-.811-.03-.811zm-.236-.875s.044-.476.474-.453c.43.023 1.448.815 1.448.815s-.693-2.067-.464-3.026c.102-.425.327-.846.546-1.184l-.32-.756c-.576.057-1.309.295-1.761 1.075-.837 1.437-.66 2.478-.469 2.892.124.256.312.476.546.637zm3.06.088s.107-.434.683-.238a1.04 1.04 0 01.684.7s-.177.844-.078 1.466c.1.622.281.992.281.992s-1.367-1.026-1.585-1.66c-.218-.633.015-1.26.015-1.26zm2.113-1c.031.434.027.87-.013 1.303 0 0-.754-1.198-1.298-1.34-.544-.143-.979.41-.979.41s-1.323-.76-.436-2.415c.556.876 1.437 1.592 2.39 1.934.107.037.222.072.336.108zm1.472.288l.721 1.347s-.366.68-.467 1.132c-.057.294-.044.597.039.884 0 0-.963-1.387-.928-2.156.023-.509.24-.978.382-1.235.084.01.17.02.253.027z" fill="#414196"/><path d="M27.524 47.057l-.251.047.246-.056.005.009zm-2.54.572l-.742 1.32a8.554 8.554 0 00-.439-1.074l.153-.01 1.028-.236zm-1.758 3.45c-.002-.004-.407-.8-.203-1.548.132-.486.226-.857.275-1.058l.39.731s-.366.68-.466 1.131c-.05.246-.049.5.004.745zm-7.632.07s-.65-.808-.834-1.425c-.111-.374-.208-.713-.267-.917.305.19.948.63.952.957.005.427.149 1.385.149 1.385zm-2.342-2.896c.153-.243.364-.543.583-.726.411-.342.543-.078.543-.078s.068-1.472.463-2.124c.395-.652.778-.925.778-.925s-.515.985-.583 2.087c-.068 1.102.473 2.658.473 2.658s-1.136-1.148-1.305-1.042c-.17.105-.537.754-.537.754a1.844 1.844 0 01-.414-.604zm4.531 3.156l-.035-.267c.01.097.03.194.06.287l-.025-.02zm-.035-.27s-.589-.806-.622-1.358a11.42 11.42 0 01-.016-.958c.48.033.833.381.833.381s-.245 1.159-.222 1.61c.009.133.019.241.03.328l-.003-.003zm-1.692-2.889c-.035-.281-.014-.618.23-.792.462-.335.716-.224.716-.224s-.238-.93.27-1.837c.24-.43.61-.785.937-1.041l.115.273c-.22.338-.446.76-.546 1.184-.229.96.464 3.026.464 3.026s-1.018-.79-1.448-.815c-.429-.023-.474.453-.474.453a1.491 1.491 0 01-.261-.224l-.003-.002zm4.868 3.173s-.845-1.241-.914-1.808c-.048-.404.003-.987.038-1.29l.017.006a1.038 1.038 0 01.684.7s-.177.844-.078 1.465c.048.318.133.63.253.927zm-2.034-3.745v-.027s.367-.9 1.191-.704l.121.029a4.538 4.538 0 001.295.593c.03.434.026.87-.014 1.302 0 0-.754-1.197-1.298-1.34-.544-.142-.979.411-.979.411a1.503 1.503 0 01-.315-.264z" fill="#24247A"/><path d="M84.232 39.59l-.188.72-14.462 2.007 11.113-2.739 3.537.011z" fill="#30BDEF"/></svg>